<mxfile host="app.diagrams.net" modified="2021-06-26T08:15:54.952Z" agent="5.0 (Macintosh; Intel Mac OS X 10_15_7) AppleWebKit/537.36 (KHTML, like Gecko) Chrome/91.0.4472.114 Safari/537.36" etag="ACaTRDzJQHYg3qk5VErf" version="14.8.1" type="github">
  <diagram id="IHKwnJ3-35ay4GU9moZC" name="Page-1">
    <mxGraphModel dx="734" dy="366" grid="1" gridSize="10" guides="1" tooltips="1" connect="1" arrows="1" fold="1" page="1" pageScale="1" pageWidth="1169" pageHeight="1654" background="#FFFFFF" math="0" shadow="0">
      <root>
        <mxCell id="0" />
        <mxCell id="1" parent="0" />
        <mxCell id="nQLHNNH5pgyKILXw8hdW-13" value="" style="edgeStyle=orthogonalEdgeStyle;rounded=0;orthogonalLoop=1;jettySize=auto;html=1;strokeColor=#564AFF;entryX=0;entryY=0.5;entryDx=0;entryDy=0;strokeWidth=3;" edge="1" parent="1" source="nQLHNNH5pgyKILXw8hdW-3" target="nQLHNNH5pgyKILXw8hdW-9">
          <mxGeometry relative="1" as="geometry">
            <mxPoint x="161" y="143" as="targetPoint" />
          </mxGeometry>
        </mxCell>
        <mxCell id="nQLHNNH5pgyKILXw8hdW-3" value="" style="verticalLabelPosition=bottom;verticalAlign=top;html=1;shape=mxgraph.basic.layered_rect;dx=10;outlineConnect=0;strokeColor=#9673a6;fillColor=#e1d5e7;" vertex="1" parent="1">
          <mxGeometry x="31" y="103" width="80" height="80" as="geometry" />
        </mxCell>
        <mxCell id="nQLHNNH5pgyKILXw8hdW-4" value="416x416x3" style="shape=partialRectangle;whiteSpace=wrap;html=1;top=0;left=0;fillColor=none;" vertex="1" parent="1">
          <mxGeometry x="30" y="193" width="80" height="20" as="geometry" />
        </mxCell>
        <mxCell id="nQLHNNH5pgyKILXw8hdW-9" value="DBL" style="rounded=1;whiteSpace=wrap;html=1;absoluteArcSize=1;arcSize=14;strokeWidth=2;fillColor=#ffe6cc;strokeColor=#d79b00;" vertex="1" parent="1">
          <mxGeometry x="140" y="118" width="50" height="50" as="geometry" />
        </mxCell>
        <mxCell id="nQLHNNH5pgyKILXw8hdW-10" value="Res(1)" style="rounded=1;whiteSpace=wrap;html=1;absoluteArcSize=1;arcSize=14;strokeWidth=2;fillColor=#dae8fc;strokeColor=#6c8ebf;gradientColor=#7ea6e0;" vertex="1" parent="1">
          <mxGeometry x="190" y="118" width="50" height="50" as="geometry" />
        </mxCell>
        <mxCell id="nQLHNNH5pgyKILXw8hdW-11" value="Res(2)" style="rounded=1;whiteSpace=wrap;html=1;absoluteArcSize=1;arcSize=14;strokeWidth=2;fillColor=#dae8fc;strokeColor=#6c8ebf;gradientColor=#7ea6e0;" vertex="1" parent="1">
          <mxGeometry x="240" y="118" width="50" height="50" as="geometry" />
        </mxCell>
        <mxCell id="nQLHNNH5pgyKILXw8hdW-23" style="edgeStyle=orthogonalEdgeStyle;rounded=0;orthogonalLoop=1;jettySize=auto;html=1;exitX=1;exitY=0.5;exitDx=0;exitDy=0;strokeColor=#564AFF;entryX=0;entryY=0.5;entryDx=0;entryDy=0;strokeWidth=3;" edge="1" parent="1" source="nQLHNNH5pgyKILXw8hdW-12" target="nQLHNNH5pgyKILXw8hdW-15">
          <mxGeometry relative="1" as="geometry">
            <mxPoint x="411" y="143" as="targetPoint" />
          </mxGeometry>
        </mxCell>
        <mxCell id="nQLHNNH5pgyKILXw8hdW-66" style="edgeStyle=none;rounded=0;orthogonalLoop=1;jettySize=auto;html=1;exitX=0.5;exitY=1;exitDx=0;exitDy=0;startArrow=none;startFill=0;endArrow=classic;endFill=1;strokeColor=#564AFF;entryX=-0.007;entryY=0.626;entryDx=0;entryDy=0;entryPerimeter=0;strokeWidth=3;" edge="1" parent="1" source="nQLHNNH5pgyKILXw8hdW-12" target="nQLHNNH5pgyKILXw8hdW-67">
          <mxGeometry relative="1" as="geometry">
            <mxPoint x="451" y="403" as="targetPoint" />
            <Array as="points">
              <mxPoint x="315" y="441" />
            </Array>
          </mxGeometry>
        </mxCell>
        <mxCell id="nQLHNNH5pgyKILXw8hdW-12" value="Res(8)" style="rounded=1;whiteSpace=wrap;html=1;absoluteArcSize=1;arcSize=14;strokeWidth=2;fillColor=#dae8fc;strokeColor=#6c8ebf;gradientColor=#7ea6e0;" vertex="1" parent="1">
          <mxGeometry x="290" y="118" width="50" height="50" as="geometry" />
        </mxCell>
        <mxCell id="nQLHNNH5pgyKILXw8hdW-24" style="edgeStyle=orthogonalEdgeStyle;rounded=0;orthogonalLoop=1;jettySize=auto;html=1;exitX=1;exitY=0.5;exitDx=0;exitDy=0;entryX=0;entryY=0.5;entryDx=0;entryDy=0;strokeColor=#564AFF;strokeWidth=3;" edge="1" parent="1" source="nQLHNNH5pgyKILXw8hdW-15" target="nQLHNNH5pgyKILXw8hdW-16">
          <mxGeometry relative="1" as="geometry" />
        </mxCell>
        <mxCell id="nQLHNNH5pgyKILXw8hdW-45" style="edgeStyle=none;rounded=0;orthogonalLoop=1;jettySize=auto;html=1;exitX=0.5;exitY=1;exitDx=0;exitDy=0;entryX=-0.005;entryY=0.674;entryDx=0;entryDy=0;startArrow=none;startFill=0;endArrow=classic;endFill=1;strokeColor=#564AFF;entryPerimeter=0;strokeWidth=3;" edge="1" parent="1" source="nQLHNNH5pgyKILXw8hdW-15" target="nQLHNNH5pgyKILXw8hdW-43">
          <mxGeometry relative="1" as="geometry">
            <Array as="points">
              <mxPoint x="395" y="303" />
            </Array>
          </mxGeometry>
        </mxCell>
        <mxCell id="nQLHNNH5pgyKILXw8hdW-15" value="Res(8)" style="rounded=1;whiteSpace=wrap;html=1;absoluteArcSize=1;arcSize=14;strokeWidth=2;fillColor=#dae8fc;strokeColor=#6c8ebf;gradientColor=#7ea6e0;" vertex="1" parent="1">
          <mxGeometry x="370" y="118" width="50" height="50" as="geometry" />
        </mxCell>
        <mxCell id="nQLHNNH5pgyKILXw8hdW-65" style="edgeStyle=none;rounded=0;orthogonalLoop=1;jettySize=auto;html=1;exitX=1;exitY=0.5;exitDx=0;exitDy=0;startArrow=none;startFill=0;endArrow=classic;endFill=1;strokeColor=#564AFF;strokeWidth=3;" edge="1" parent="1" source="nQLHNNH5pgyKILXw8hdW-16">
          <mxGeometry relative="1" as="geometry">
            <mxPoint x="511" y="143" as="targetPoint" />
          </mxGeometry>
        </mxCell>
        <mxCell id="nQLHNNH5pgyKILXw8hdW-16" value="Res(4)" style="rounded=1;whiteSpace=wrap;html=1;absoluteArcSize=1;arcSize=14;strokeWidth=2;fillColor=#dae8fc;strokeColor=#6c8ebf;gradientColor=#7ea6e0;" vertex="1" parent="1">
          <mxGeometry x="441" y="118" width="50" height="50" as="geometry" />
        </mxCell>
        <mxCell id="nQLHNNH5pgyKILXw8hdW-29" style="edgeStyle=orthogonalEdgeStyle;rounded=0;orthogonalLoop=1;jettySize=auto;html=1;exitX=0;exitY=0.5;exitDx=0;exitDy=0;entryX=0;entryY=0.5;entryDx=0;entryDy=0;strokeColor=#564AFF;" edge="1" parent="1" source="nQLHNNH5pgyKILXw8hdW-17" target="nQLHNNH5pgyKILXw8hdW-19">
          <mxGeometry relative="1" as="geometry" />
        </mxCell>
        <mxCell id="nQLHNNH5pgyKILXw8hdW-17" value="DBL" style="rounded=1;whiteSpace=wrap;html=1;absoluteArcSize=1;arcSize=14;strokeWidth=2;fillColor=#ffe6cc;strokeColor=#d79b00;" vertex="1" parent="1">
          <mxGeometry x="513" y="100" width="50" height="50" as="geometry" />
        </mxCell>
        <mxCell id="nQLHNNH5pgyKILXw8hdW-18" value="DBL" style="rounded=1;whiteSpace=wrap;html=1;absoluteArcSize=1;arcSize=14;strokeWidth=2;fillColor=#ffe6cc;strokeColor=#d79b00;" vertex="1" parent="1">
          <mxGeometry x="523" y="110" width="50" height="50" as="geometry" />
        </mxCell>
        <mxCell id="nQLHNNH5pgyKILXw8hdW-19" value="DBL" style="rounded=1;whiteSpace=wrap;html=1;absoluteArcSize=1;arcSize=14;strokeWidth=2;fillColor=#ffe6cc;strokeColor=#d79b00;" vertex="1" parent="1">
          <mxGeometry x="533" y="120" width="50" height="50" as="geometry" />
        </mxCell>
        <mxCell id="nQLHNNH5pgyKILXw8hdW-20" value="DBL" style="rounded=1;whiteSpace=wrap;html=1;absoluteArcSize=1;arcSize=14;strokeWidth=2;fillColor=#ffe6cc;strokeColor=#d79b00;" vertex="1" parent="1">
          <mxGeometry x="543" y="130" width="50" height="50" as="geometry" />
        </mxCell>
        <mxCell id="nQLHNNH5pgyKILXw8hdW-26" value="DBL" style="rounded=1;whiteSpace=wrap;html=1;absoluteArcSize=1;arcSize=14;strokeWidth=2;fillColor=#ffe6cc;strokeColor=#d79b00;" vertex="1" parent="1">
          <mxGeometry x="553" y="140" width="50" height="50" as="geometry" />
        </mxCell>
        <mxCell id="nQLHNNH5pgyKILXw8hdW-31" style="rounded=0;orthogonalLoop=1;jettySize=auto;html=1;exitX=0;exitY=0.5;exitDx=0;exitDy=0;strokeColor=#564AFF;startArrow=classic;startFill=1;endArrow=none;endFill=0;entryX=1;entryY=0.5;entryDx=0;entryDy=0;strokeWidth=3;" edge="1" parent="1" source="nQLHNNH5pgyKILXw8hdW-28" target="nQLHNNH5pgyKILXw8hdW-26">
          <mxGeometry relative="1" as="geometry">
            <mxPoint x="603" y="142" as="targetPoint" />
            <Array as="points">
              <mxPoint x="621" y="142" />
            </Array>
          </mxGeometry>
        </mxCell>
        <mxCell id="nQLHNNH5pgyKILXw8hdW-38" style="edgeStyle=none;rounded=0;orthogonalLoop=1;jettySize=auto;html=1;startArrow=none;startFill=0;endArrow=classic;endFill=1;strokeColor=#564AFF;entryX=0.5;entryY=0;entryDx=0;entryDy=0;strokeWidth=3;" edge="1" parent="1" source="nQLHNNH5pgyKILXw8hdW-28" target="nQLHNNH5pgyKILXw8hdW-39">
          <mxGeometry relative="1" as="geometry">
            <mxPoint x="667" y="253" as="targetPoint" />
            <Array as="points">
              <mxPoint x="667" y="213" />
              <mxPoint x="446" y="213" />
            </Array>
          </mxGeometry>
        </mxCell>
        <mxCell id="nQLHNNH5pgyKILXw8hdW-28" value="DBL" style="rounded=1;whiteSpace=wrap;html=1;absoluteArcSize=1;arcSize=14;strokeWidth=2;fillColor=#ffe6cc;strokeColor=#d79b00;" vertex="1" parent="1">
          <mxGeometry x="642" y="118" width="50" height="50" as="geometry" />
        </mxCell>
        <mxCell id="nQLHNNH5pgyKILXw8hdW-37" style="rounded=0;orthogonalLoop=1;jettySize=auto;html=1;exitX=1;exitY=0.5;exitDx=0;exitDy=0;entryX=0;entryY=0.5;entryDx=0;entryDy=0;entryPerimeter=0;startArrow=none;startFill=0;endArrow=classic;endFill=1;strokeColor=#564AFF;strokeWidth=3;" edge="1" parent="1" source="nQLHNNH5pgyKILXw8hdW-30" target="nQLHNNH5pgyKILXw8hdW-34">
          <mxGeometry relative="1" as="geometry" />
        </mxCell>
        <mxCell id="nQLHNNH5pgyKILXw8hdW-30" value="&lt;font color=&quot;#000000&quot;&gt;Conv&lt;/font&gt;" style="rounded=1;whiteSpace=wrap;html=1;absoluteArcSize=1;arcSize=14;strokeWidth=2;fillColor=#1ba1e2;strokeColor=#006EAF;fontColor=#ffffff;" vertex="1" parent="1">
          <mxGeometry x="692" y="118" width="50" height="50" as="geometry" />
        </mxCell>
        <mxCell id="nQLHNNH5pgyKILXw8hdW-34" value="" style="verticalLabelPosition=bottom;verticalAlign=top;html=1;shape=mxgraph.basic.diag_snip_rect;dx=6;fillColor=#F8B540;" vertex="1" parent="1">
          <mxGeometry x="847" y="113" width="100" height="60" as="geometry" />
        </mxCell>
        <mxCell id="nQLHNNH5pgyKILXw8hdW-35" value="Y1" style="text;html=1;align=center;verticalAlign=middle;resizable=0;points=[];autosize=1;strokeColor=none;" vertex="1" parent="1">
          <mxGeometry x="882" y="133" width="30" height="20" as="geometry" />
        </mxCell>
        <mxCell id="nQLHNNH5pgyKILXw8hdW-36" value="13x13x255" style="shape=partialRectangle;whiteSpace=wrap;html=1;top=0;left=0;fillColor=none;" vertex="1" parent="1">
          <mxGeometry x="857" y="183" width="80" height="20" as="geometry" />
        </mxCell>
        <mxCell id="nQLHNNH5pgyKILXw8hdW-44" style="edgeStyle=none;rounded=0;orthogonalLoop=1;jettySize=auto;html=1;exitX=1;exitY=0.5;exitDx=0;exitDy=0;startArrow=none;startFill=0;endArrow=classic;endFill=1;strokeColor=#564AFF;entryX=-0.018;entryY=0.276;entryDx=0;entryDy=0;entryPerimeter=0;strokeWidth=3;" edge="1" parent="1" source="nQLHNNH5pgyKILXw8hdW-39" target="nQLHNNH5pgyKILXw8hdW-43">
          <mxGeometry relative="1" as="geometry">
            <mxPoint x="740.9999999999998" y="278.0344827586207" as="targetPoint" />
          </mxGeometry>
        </mxCell>
        <mxCell id="nQLHNNH5pgyKILXw8hdW-39" value="UpSampling" style="rounded=1;whiteSpace=wrap;html=1;absoluteArcSize=1;arcSize=14;strokeWidth=2;fillColor=#fad9d5;strokeColor=#ae4132;" vertex="1" parent="1">
          <mxGeometry x="411" y="242" width="69" height="50" as="geometry" />
        </mxCell>
        <mxCell id="nQLHNNH5pgyKILXw8hdW-57" style="edgeStyle=none;rounded=0;orthogonalLoop=1;jettySize=auto;html=1;exitX=1;exitY=0.5;exitDx=0;exitDy=0;startArrow=none;startFill=0;endArrow=classic;endFill=1;strokeColor=#564AFF;strokeWidth=3;entryX=-0.015;entryY=0.882;entryDx=0;entryDy=0;entryPerimeter=0;" edge="1" parent="1" source="nQLHNNH5pgyKILXw8hdW-43" target="nQLHNNH5pgyKILXw8hdW-52">
          <mxGeometry relative="1" as="geometry">
            <mxPoint x="590" y="287" as="targetPoint" />
            <Array as="points" />
          </mxGeometry>
        </mxCell>
        <mxCell id="nQLHNNH5pgyKILXw8hdW-43" value="Concat" style="rounded=1;whiteSpace=wrap;html=1;absoluteArcSize=1;arcSize=14;strokeWidth=2;fillColor=#f0a30a;strokeColor=#BD7000;fontColor=#000000;" vertex="1" parent="1">
          <mxGeometry x="500" y="242" width="69" height="90" as="geometry" />
        </mxCell>
        <mxCell id="nQLHNNH5pgyKILXw8hdW-51" style="edgeStyle=orthogonalEdgeStyle;rounded=0;orthogonalLoop=1;jettySize=auto;html=1;exitX=0;exitY=0.5;exitDx=0;exitDy=0;entryX=0;entryY=0.5;entryDx=0;entryDy=0;strokeColor=#564AFF;" edge="1" parent="1" source="nQLHNNH5pgyKILXw8hdW-52" target="nQLHNNH5pgyKILXw8hdW-54">
          <mxGeometry relative="1" as="geometry" />
        </mxCell>
        <mxCell id="nQLHNNH5pgyKILXw8hdW-52" value="DBL" style="rounded=1;whiteSpace=wrap;html=1;absoluteArcSize=1;arcSize=14;strokeWidth=2;fillColor=#ffe6cc;strokeColor=#d79b00;" vertex="1" parent="1">
          <mxGeometry x="592" y="243" width="50" height="50" as="geometry" />
        </mxCell>
        <mxCell id="nQLHNNH5pgyKILXw8hdW-53" value="DBL" style="rounded=1;whiteSpace=wrap;html=1;absoluteArcSize=1;arcSize=14;strokeWidth=2;fillColor=#ffe6cc;strokeColor=#d79b00;" vertex="1" parent="1">
          <mxGeometry x="602" y="253" width="50" height="50" as="geometry" />
        </mxCell>
        <mxCell id="nQLHNNH5pgyKILXw8hdW-54" value="DBL" style="rounded=1;whiteSpace=wrap;html=1;absoluteArcSize=1;arcSize=14;strokeWidth=2;fillColor=#ffe6cc;strokeColor=#d79b00;" vertex="1" parent="1">
          <mxGeometry x="612" y="263" width="50" height="50" as="geometry" />
        </mxCell>
        <mxCell id="nQLHNNH5pgyKILXw8hdW-55" value="DBL" style="rounded=1;whiteSpace=wrap;html=1;absoluteArcSize=1;arcSize=14;strokeWidth=2;fillColor=#ffe6cc;strokeColor=#d79b00;" vertex="1" parent="1">
          <mxGeometry x="622" y="273" width="50" height="50" as="geometry" />
        </mxCell>
        <mxCell id="nQLHNNH5pgyKILXw8hdW-60" style="edgeStyle=none;rounded=0;orthogonalLoop=1;jettySize=auto;html=1;exitX=1;exitY=0.25;exitDx=0;exitDy=0;entryX=0;entryY=0.5;entryDx=0;entryDy=0;startArrow=none;startFill=0;endArrow=classic;endFill=1;strokeColor=#564AFF;strokeWidth=3;" edge="1" parent="1" source="nQLHNNH5pgyKILXw8hdW-56" target="nQLHNNH5pgyKILXw8hdW-58">
          <mxGeometry relative="1" as="geometry">
            <Array as="points" />
          </mxGeometry>
        </mxCell>
        <mxCell id="nQLHNNH5pgyKILXw8hdW-56" value="DBL" style="rounded=1;whiteSpace=wrap;html=1;absoluteArcSize=1;arcSize=14;strokeWidth=2;fillColor=#ffe6cc;strokeColor=#d79b00;" vertex="1" parent="1">
          <mxGeometry x="632" y="284" width="50" height="50" as="geometry" />
        </mxCell>
        <mxCell id="nQLHNNH5pgyKILXw8hdW-63" style="edgeStyle=none;rounded=0;orthogonalLoop=1;jettySize=auto;html=1;exitX=0.5;exitY=1;exitDx=0;exitDy=0;entryX=0.5;entryY=0;entryDx=0;entryDy=0;startArrow=none;startFill=0;endArrow=classic;endFill=1;strokeColor=#564AFF;strokeWidth=3;" edge="1" parent="1" source="nQLHNNH5pgyKILXw8hdW-58" target="nQLHNNH5pgyKILXw8hdW-61">
          <mxGeometry relative="1" as="geometry">
            <Array as="points">
              <mxPoint x="734" y="353" />
              <mxPoint x="681" y="353" />
              <mxPoint x="601" y="353" />
              <mxPoint x="446" y="353" />
            </Array>
          </mxGeometry>
        </mxCell>
        <mxCell id="nQLHNNH5pgyKILXw8hdW-58" value="DBL" style="rounded=1;whiteSpace=wrap;html=1;absoluteArcSize=1;arcSize=14;strokeWidth=2;fillColor=#ffe6cc;strokeColor=#d79b00;" vertex="1" parent="1">
          <mxGeometry x="709" y="271" width="50" height="50" as="geometry" />
        </mxCell>
        <mxCell id="nQLHNNH5pgyKILXw8hdW-72" style="edgeStyle=none;rounded=0;orthogonalLoop=1;jettySize=auto;html=1;exitX=1;exitY=0.5;exitDx=0;exitDy=0;entryX=0;entryY=0.5;entryDx=0;entryDy=0;entryPerimeter=0;startArrow=none;startFill=0;endArrow=classic;endFill=1;strokeColor=#564AFF;strokeWidth=3;" edge="1" parent="1" source="nQLHNNH5pgyKILXw8hdW-59" target="nQLHNNH5pgyKILXw8hdW-69">
          <mxGeometry relative="1" as="geometry" />
        </mxCell>
        <mxCell id="nQLHNNH5pgyKILXw8hdW-59" value="&lt;font color=&quot;#000000&quot;&gt;Conv&lt;/font&gt;" style="rounded=1;whiteSpace=wrap;html=1;absoluteArcSize=1;arcSize=14;strokeWidth=2;fillColor=#1ba1e2;strokeColor=#006EAF;fontColor=#ffffff;" vertex="1" parent="1">
          <mxGeometry x="759" y="271" width="50" height="50" as="geometry" />
        </mxCell>
        <mxCell id="nQLHNNH5pgyKILXw8hdW-68" style="edgeStyle=none;rounded=0;orthogonalLoop=1;jettySize=auto;html=1;exitX=1;exitY=0.5;exitDx=0;exitDy=0;entryX=0;entryY=0.25;entryDx=0;entryDy=0;startArrow=none;startFill=0;endArrow=classic;endFill=1;strokeColor=#564AFF;strokeWidth=3;" edge="1" parent="1" source="nQLHNNH5pgyKILXw8hdW-61" target="nQLHNNH5pgyKILXw8hdW-67">
          <mxGeometry relative="1" as="geometry" />
        </mxCell>
        <mxCell id="nQLHNNH5pgyKILXw8hdW-61" value="UpSampling" style="rounded=1;whiteSpace=wrap;html=1;absoluteArcSize=1;arcSize=14;strokeWidth=2;fillColor=#fad9d5;strokeColor=#ae4132;" vertex="1" parent="1">
          <mxGeometry x="412" y="383" width="69" height="50" as="geometry" />
        </mxCell>
        <mxCell id="nQLHNNH5pgyKILXw8hdW-87" style="edgeStyle=none;rounded=0;orthogonalLoop=1;jettySize=auto;html=1;exitX=1;exitY=0.5;exitDx=0;exitDy=0;startArrow=none;startFill=0;endArrow=classic;endFill=1;strokeColor=#564AFF;strokeWidth=3;entryX=0.011;entryY=0.957;entryDx=0;entryDy=0;entryPerimeter=0;" edge="1" parent="1" source="nQLHNNH5pgyKILXw8hdW-67" target="nQLHNNH5pgyKILXw8hdW-77">
          <mxGeometry relative="1" as="geometry">
            <mxPoint x="601" y="430.16666666666674" as="targetPoint" />
          </mxGeometry>
        </mxCell>
        <mxCell id="nQLHNNH5pgyKILXw8hdW-67" value="Concat" style="rounded=1;whiteSpace=wrap;html=1;absoluteArcSize=1;arcSize=14;strokeWidth=2;fillColor=#f0a30a;strokeColor=#BD7000;fontColor=#000000;" vertex="1" parent="1">
          <mxGeometry x="503.5" y="385" width="69" height="90" as="geometry" />
        </mxCell>
        <mxCell id="nQLHNNH5pgyKILXw8hdW-69" value="" style="verticalLabelPosition=bottom;verticalAlign=top;html=1;shape=mxgraph.basic.diag_snip_rect;dx=6;fillColor=#F8B540;" vertex="1" parent="1">
          <mxGeometry x="847" y="266" width="100" height="60" as="geometry" />
        </mxCell>
        <mxCell id="nQLHNNH5pgyKILXw8hdW-70" value="Y2" style="text;html=1;align=center;verticalAlign=middle;resizable=0;points=[];autosize=1;strokeColor=none;" vertex="1" parent="1">
          <mxGeometry x="882" y="286" width="30" height="20" as="geometry" />
        </mxCell>
        <mxCell id="nQLHNNH5pgyKILXw8hdW-71" value="26x26x255" style="shape=partialRectangle;whiteSpace=wrap;html=1;top=0;left=0;fillColor=none;" vertex="1" parent="1">
          <mxGeometry x="857" y="336" width="80" height="20" as="geometry" />
        </mxCell>
        <mxCell id="nQLHNNH5pgyKILXw8hdW-73" value="" style="verticalLabelPosition=bottom;verticalAlign=top;html=1;shape=mxgraph.basic.diag_snip_rect;dx=6;fillColor=#F8B540;" vertex="1" parent="1">
          <mxGeometry x="850" y="405" width="100" height="60" as="geometry" />
        </mxCell>
        <mxCell id="nQLHNNH5pgyKILXw8hdW-74" value="Y3" style="text;html=1;align=center;verticalAlign=middle;resizable=0;points=[];autosize=1;strokeColor=none;" vertex="1" parent="1">
          <mxGeometry x="882" y="425.5" width="30" height="20" as="geometry" />
        </mxCell>
        <mxCell id="nQLHNNH5pgyKILXw8hdW-75" value="52x52x255" style="shape=partialRectangle;whiteSpace=wrap;html=1;top=0;left=0;fillColor=none;" vertex="1" parent="1">
          <mxGeometry x="857" y="475" width="80" height="20" as="geometry" />
        </mxCell>
        <mxCell id="nQLHNNH5pgyKILXw8hdW-76" style="edgeStyle=orthogonalEdgeStyle;rounded=0;orthogonalLoop=1;jettySize=auto;html=1;exitX=0;exitY=0.5;exitDx=0;exitDy=0;entryX=0;entryY=0.5;entryDx=0;entryDy=0;strokeColor=#564AFF;" edge="1" parent="1" source="nQLHNNH5pgyKILXw8hdW-77" target="nQLHNNH5pgyKILXw8hdW-79">
          <mxGeometry relative="1" as="geometry" />
        </mxCell>
        <mxCell id="nQLHNNH5pgyKILXw8hdW-77" value="DBL" style="rounded=1;whiteSpace=wrap;html=1;absoluteArcSize=1;arcSize=14;strokeWidth=2;fillColor=#ffe6cc;strokeColor=#d79b00;" vertex="1" parent="1">
          <mxGeometry x="601" y="382.5" width="50" height="50" as="geometry" />
        </mxCell>
        <mxCell id="nQLHNNH5pgyKILXw8hdW-78" value="DBL" style="rounded=1;whiteSpace=wrap;html=1;absoluteArcSize=1;arcSize=14;strokeWidth=2;fillColor=#ffe6cc;strokeColor=#d79b00;" vertex="1" parent="1">
          <mxGeometry x="611" y="392.5" width="50" height="50" as="geometry" />
        </mxCell>
        <mxCell id="nQLHNNH5pgyKILXw8hdW-79" value="DBL" style="rounded=1;whiteSpace=wrap;html=1;absoluteArcSize=1;arcSize=14;strokeWidth=2;fillColor=#ffe6cc;strokeColor=#d79b00;" vertex="1" parent="1">
          <mxGeometry x="621" y="402.5" width="50" height="50" as="geometry" />
        </mxCell>
        <mxCell id="nQLHNNH5pgyKILXw8hdW-80" value="DBL" style="rounded=1;whiteSpace=wrap;html=1;absoluteArcSize=1;arcSize=14;strokeWidth=2;fillColor=#ffe6cc;strokeColor=#d79b00;" vertex="1" parent="1">
          <mxGeometry x="631" y="412.5" width="50" height="50" as="geometry" />
        </mxCell>
        <mxCell id="nQLHNNH5pgyKILXw8hdW-81" style="edgeStyle=none;rounded=0;orthogonalLoop=1;jettySize=auto;html=1;exitX=1;exitY=0.25;exitDx=0;exitDy=0;startArrow=none;startFill=0;endArrow=classic;endFill=1;strokeColor=#564AFF;strokeWidth=3;entryX=-0.019;entryY=0.508;entryDx=0;entryDy=0;entryPerimeter=0;" edge="1" parent="1" source="nQLHNNH5pgyKILXw8hdW-82" target="nQLHNNH5pgyKILXw8hdW-83">
          <mxGeometry relative="1" as="geometry">
            <Array as="points" />
            <mxPoint x="716" y="436" as="targetPoint" />
          </mxGeometry>
        </mxCell>
        <mxCell id="nQLHNNH5pgyKILXw8hdW-82" value="DBL" style="rounded=1;whiteSpace=wrap;html=1;absoluteArcSize=1;arcSize=14;strokeWidth=2;fillColor=#ffe6cc;strokeColor=#d79b00;" vertex="1" parent="1">
          <mxGeometry x="641" y="423.5" width="50" height="50" as="geometry" />
        </mxCell>
        <mxCell id="nQLHNNH5pgyKILXw8hdW-83" value="DBL" style="rounded=1;whiteSpace=wrap;html=1;absoluteArcSize=1;arcSize=14;strokeWidth=2;fillColor=#ffe6cc;strokeColor=#d79b00;" vertex="1" parent="1">
          <mxGeometry x="716" y="410.5" width="50" height="50" as="geometry" />
        </mxCell>
        <mxCell id="nQLHNNH5pgyKILXw8hdW-86" style="edgeStyle=none;rounded=0;orthogonalLoop=1;jettySize=auto;html=1;exitX=1;exitY=0.5;exitDx=0;exitDy=0;entryX=0;entryY=0.5;entryDx=0;entryDy=0;entryPerimeter=0;startArrow=none;startFill=0;endArrow=classic;endFill=1;strokeColor=#564AFF;strokeWidth=3;" edge="1" parent="1" source="nQLHNNH5pgyKILXw8hdW-84" target="nQLHNNH5pgyKILXw8hdW-73">
          <mxGeometry relative="1" as="geometry" />
        </mxCell>
        <mxCell id="nQLHNNH5pgyKILXw8hdW-84" value="&lt;font color=&quot;#000000&quot;&gt;Conv&lt;/font&gt;" style="rounded=1;whiteSpace=wrap;html=1;absoluteArcSize=1;arcSize=14;strokeWidth=2;fillColor=#1ba1e2;strokeColor=#006EAF;fontColor=#ffffff;" vertex="1" parent="1">
          <mxGeometry x="766" y="410.5" width="50" height="50" as="geometry" />
        </mxCell>
        <mxCell id="nQLHNNH5pgyKILXw8hdW-90" style="edgeStyle=none;shape=link;rounded=0;orthogonalLoop=1;jettySize=auto;html=1;startArrow=none;startFill=0;endArrow=classic;endFill=1;strokeColor=#564AFF;strokeWidth=3;" edge="1" parent="1">
          <mxGeometry relative="1" as="geometry">
            <mxPoint x="92" y="558" as="sourcePoint" />
            <mxPoint x="102" y="558" as="targetPoint" />
          </mxGeometry>
        </mxCell>
        <mxCell id="nQLHNNH5pgyKILXw8hdW-89" value="&lt;font color=&quot;#000000&quot;&gt;Conv&lt;/font&gt;" style="rounded=1;whiteSpace=wrap;html=1;absoluteArcSize=1;arcSize=14;strokeWidth=2;fillColor=#1ba1e2;strokeColor=#006EAF;fontColor=#ffffff;" vertex="1" parent="1">
          <mxGeometry x="112" y="533" width="50" height="50" as="geometry" />
        </mxCell>
        <mxCell id="nQLHNNH5pgyKILXw8hdW-92" value="DBL" style="rounded=1;whiteSpace=wrap;html=1;absoluteArcSize=1;arcSize=14;strokeWidth=2;fillColor=#ffe6cc;strokeColor=#d79b00;" vertex="1" parent="1">
          <mxGeometry x="31" y="533" width="50" height="50" as="geometry" />
        </mxCell>
        <mxCell id="nQLHNNH5pgyKILXw8hdW-106" style="edgeStyle=elbowEdgeStyle;rounded=0;orthogonalLoop=1;jettySize=auto;html=1;exitX=0;exitY=0.5;exitDx=0;exitDy=0;startArrow=none;startFill=0;endArrow=none;endFill=0;strokeColor=#564AFF;strokeWidth=3;elbow=vertical;" edge="1" parent="1" source="nQLHNNH5pgyKILXw8hdW-93">
          <mxGeometry relative="1" as="geometry">
            <mxPoint x="401" y="558" as="targetPoint" />
            <Array as="points">
              <mxPoint x="561" y="558" />
            </Array>
          </mxGeometry>
        </mxCell>
        <mxCell id="nQLHNNH5pgyKILXw8hdW-93" value="DBL" style="rounded=1;whiteSpace=wrap;html=1;absoluteArcSize=1;arcSize=14;strokeWidth=2;fillColor=#ffe6cc;strokeColor=#d79b00;" vertex="1" parent="1">
          <mxGeometry x="439" y="533" width="50" height="50" as="geometry" />
        </mxCell>
        <mxCell id="nQLHNNH5pgyKILXw8hdW-94" value="&lt;font color=&quot;#000000&quot;&gt;BN&lt;/font&gt;" style="rounded=1;whiteSpace=wrap;html=1;absoluteArcSize=1;arcSize=14;strokeWidth=2;fillColor=#bac8d3;strokeColor=#23445d;" vertex="1" parent="1">
          <mxGeometry x="162" y="533" width="50" height="50" as="geometry" />
        </mxCell>
        <mxCell id="nQLHNNH5pgyKILXw8hdW-95" value="&lt;font color=&quot;#000000&quot;&gt;Leaky&lt;br&gt;ReLU&lt;br&gt;&lt;/font&gt;" style="rounded=1;whiteSpace=wrap;html=1;absoluteArcSize=1;arcSize=14;strokeWidth=2;fillColor=#d5e8d4;strokeColor=#82b366;gradientColor=#97d077;" vertex="1" parent="1">
          <mxGeometry x="213" y="533" width="49" height="50" as="geometry" />
        </mxCell>
        <mxCell id="nQLHNNH5pgyKILXw8hdW-97" value="Res&lt;br&gt;Unit" style="rounded=1;whiteSpace=wrap;html=1;absoluteArcSize=1;arcSize=14;strokeWidth=2;fillColor=#e6d0de;strokeColor=#996185;gradientColor=#d5739d;" vertex="1" parent="1">
          <mxGeometry x="311" y="533" width="50" height="50" as="geometry" />
        </mxCell>
        <mxCell id="nQLHNNH5pgyKILXw8hdW-98" style="edgeStyle=none;shape=link;rounded=0;orthogonalLoop=1;jettySize=auto;html=1;startArrow=none;startFill=0;endArrow=classic;endFill=1;strokeColor=#564AFF;strokeWidth=3;" edge="1" parent="1">
          <mxGeometry relative="1" as="geometry">
            <mxPoint x="372.9999999999998" y="557.9999999999998" as="sourcePoint" />
            <mxPoint x="382.9999999999998" y="557.9999999999998" as="targetPoint" />
          </mxGeometry>
        </mxCell>
        <mxCell id="nQLHNNH5pgyKILXw8hdW-111" style="edgeStyle=orthogonalEdgeStyle;rounded=0;orthogonalLoop=1;jettySize=auto;html=1;exitX=1;exitY=0.5;exitDx=0;exitDy=0;startArrow=none;startFill=0;endArrow=classic;endFill=1;strokeColor=#564AFF;strokeWidth=3;" edge="1" parent="1" source="nQLHNNH5pgyKILXw8hdW-101">
          <mxGeometry relative="1" as="geometry">
            <mxPoint x="671" y="558" as="targetPoint" />
          </mxGeometry>
        </mxCell>
        <mxCell id="nQLHNNH5pgyKILXw8hdW-101" value="&lt;font color=&quot;#000000&quot;&gt;add&lt;br&gt;&lt;/font&gt;" style="rounded=1;whiteSpace=wrap;html=1;absoluteArcSize=1;arcSize=14;strokeWidth=2;fillColor=#d5e8d4;strokeColor=#82b366;gradientColor=#97d077;" vertex="1" parent="1">
          <mxGeometry x="583" y="533" width="52" height="50" as="geometry" />
        </mxCell>
        <mxCell id="nQLHNNH5pgyKILXw8hdW-107" style="edgeStyle=elbowEdgeStyle;rounded=0;orthogonalLoop=1;jettySize=auto;html=1;exitX=1;exitY=0.5;exitDx=0;exitDy=0;startArrow=none;startFill=0;endArrow=none;endFill=0;strokeColor=#564AFF;strokeWidth=3;" edge="1" parent="1" source="nQLHNNH5pgyKILXw8hdW-105">
          <mxGeometry relative="1" as="geometry">
            <mxPoint x="581" y="558" as="targetPoint" />
          </mxGeometry>
        </mxCell>
        <mxCell id="nQLHNNH5pgyKILXw8hdW-105" value="DBL" style="rounded=1;whiteSpace=wrap;html=1;absoluteArcSize=1;arcSize=14;strokeWidth=2;fillColor=#ffe6cc;strokeColor=#d79b00;" vertex="1" parent="1">
          <mxGeometry x="491" y="533" width="50" height="50" as="geometry" />
        </mxCell>
        <mxCell id="nQLHNNH5pgyKILXw8hdW-109" value="" style="endArrow=classic;startArrow=none;html=1;strokeColor=#564AFF;strokeWidth=3;edgeStyle=orthogonalEdgeStyle;startFill=0;entryX=0.5;entryY=0;entryDx=0;entryDy=0;" edge="1" parent="1" target="nQLHNNH5pgyKILXw8hdW-101">
          <mxGeometry width="50" height="50" relative="1" as="geometry">
            <mxPoint x="421" y="556" as="sourcePoint" />
            <mxPoint x="611" y="526" as="targetPoint" />
            <Array as="points">
              <mxPoint x="421" y="503" />
              <mxPoint x="609" y="503" />
            </Array>
          </mxGeometry>
        </mxCell>
        <mxCell id="nQLHNNH5pgyKILXw8hdW-114" value="Res(n)" style="rounded=1;whiteSpace=wrap;html=1;absoluteArcSize=1;arcSize=14;strokeWidth=2;fillColor=#dae8fc;strokeColor=#6c8ebf;gradientColor=#7ea6e0;" vertex="1" parent="1">
          <mxGeometry x="31" y="613" width="50" height="50" as="geometry" />
        </mxCell>
        <mxCell id="nQLHNNH5pgyKILXw8hdW-115" value="Res&lt;br&gt;Unit" style="rounded=1;whiteSpace=wrap;html=1;absoluteArcSize=1;arcSize=14;strokeWidth=2;fillColor=#e6d0de;strokeColor=#996185;gradientColor=#d5739d;" vertex="1" parent="1">
          <mxGeometry x="243" y="598" width="48" height="49" as="geometry" />
        </mxCell>
        <mxCell id="nQLHNNH5pgyKILXw8hdW-116" style="edgeStyle=none;shape=link;rounded=0;orthogonalLoop=1;jettySize=auto;html=1;startArrow=none;startFill=0;endArrow=classic;endFill=1;strokeColor=#564AFF;strokeWidth=3;" edge="1" parent="1">
          <mxGeometry relative="1" as="geometry">
            <mxPoint x="91.99999999999977" y="637.9999999999998" as="sourcePoint" />
            <mxPoint x="101.99999999999977" y="637.9999999999998" as="targetPoint" />
          </mxGeometry>
        </mxCell>
        <mxCell id="nQLHNNH5pgyKILXw8hdW-117" value="Res&lt;br&gt;Unit" style="rounded=1;whiteSpace=wrap;html=1;absoluteArcSize=1;arcSize=14;strokeWidth=2;fillColor=#e6d0de;strokeColor=#996185;gradientColor=#d5739d;" vertex="1" parent="1">
          <mxGeometry x="253" y="608" width="48" height="50" as="geometry" />
        </mxCell>
        <mxCell id="nQLHNNH5pgyKILXw8hdW-121" style="edgeStyle=orthogonalEdgeStyle;rounded=0;orthogonalLoop=1;jettySize=auto;html=1;exitX=1;exitY=0.5;exitDx=0;exitDy=0;startArrow=none;startFill=0;endArrow=classic;endFill=1;strokeColor=#564AFF;strokeWidth=3;" edge="1" parent="1" source="nQLHNNH5pgyKILXw8hdW-118">
          <mxGeometry relative="1" as="geometry">
            <mxPoint x="341" y="643" as="targetPoint" />
          </mxGeometry>
        </mxCell>
        <mxCell id="nQLHNNH5pgyKILXw8hdW-118" value="Res&lt;br&gt;Unit" style="rounded=1;whiteSpace=wrap;html=1;absoluteArcSize=1;arcSize=14;strokeWidth=2;fillColor=#e6d0de;strokeColor=#996185;gradientColor=#d5739d;" vertex="1" parent="1">
          <mxGeometry x="263" y="618" width="48" height="50" as="geometry" />
        </mxCell>
        <mxCell id="nQLHNNH5pgyKILXw8hdW-124" style="edgeStyle=orthogonalEdgeStyle;rounded=0;orthogonalLoop=1;jettySize=auto;html=1;exitX=1;exitY=0.5;exitDx=0;exitDy=0;entryX=-0.019;entryY=0.829;entryDx=0;entryDy=0;entryPerimeter=0;startArrow=none;startFill=0;endArrow=classic;endFill=1;strokeColor=#564AFF;strokeWidth=3;" edge="1" parent="1" source="nQLHNNH5pgyKILXw8hdW-122" target="nQLHNNH5pgyKILXw8hdW-115">
          <mxGeometry relative="1" as="geometry" />
        </mxCell>
        <mxCell id="nQLHNNH5pgyKILXw8hdW-122" value="DBL" style="rounded=1;whiteSpace=wrap;html=1;absoluteArcSize=1;arcSize=14;strokeWidth=2;fillColor=#ffe6cc;strokeColor=#d79b00;" vertex="1" parent="1">
          <mxGeometry x="162" y="613" width="50" height="50" as="geometry" />
        </mxCell>
        <mxCell id="nQLHNNH5pgyKILXw8hdW-123" value="&lt;font color=&quot;#000000&quot;&gt;Zero&lt;br&gt;Padding&lt;/font&gt;" style="rounded=1;whiteSpace=wrap;html=1;absoluteArcSize=1;arcSize=14;strokeWidth=2;fillColor=#bac8d3;strokeColor=#23445d;" vertex="1" parent="1">
          <mxGeometry x="112" y="613" width="50" height="50" as="geometry" />
        </mxCell>
        <mxCell id="nQLHNNH5pgyKILXw8hdW-125" value="" style="strokeWidth=2;html=1;shape=mxgraph.flowchart.annotation_2;align=left;labelPosition=right;pointerEvents=1;fillColor=#F8B540;direction=north;" vertex="1" parent="1">
          <mxGeometry x="242" y="673" width="69" height="20" as="geometry" />
        </mxCell>
        <mxCell id="nQLHNNH5pgyKILXw8hdW-126" value="Res Unit * n" style="shape=partialRectangle;whiteSpace=wrap;html=1;top=0;left=0;fillColor=none;" vertex="1" parent="1">
          <mxGeometry x="236.5" y="693" width="80" height="20" as="geometry" />
        </mxCell>
      </root>
    </mxGraphModel>
  </diagram>
</mxfile>
